<svg id="Layer_1" data-name="Layer 1" xmlns="http://www.w3.org/2000/svg" viewBox="0 0 1080 1080"><defs><style>.cls-1{fill:#002644;}</style></defs><title>Assets</title><path class="cls-1" d="M874,640.21c-.77-9.37-.14-18.85-.15-28.29,0-22.67-.54-23.21-23.54-23.21H229.26c-3,0-6,0-8.94,0-9.65.12-14.62,4.57-14.41,14.66.26,12.91.41,25.84,0,38.73-.42,11.63,5.09,16.18,16.14,16,14.89-.19,29.79.16,44.68-.12,6.33-.12,9.57,1.55,11.4,8.42a208,208,0,0,0,20.72,50.73c4.13,7.14,2.83,11.27-2.76,16.43-10.21,9.43-19.55,19.78-29.69,29.28-8.64,8.09-9.24,15.08-.37,23.74q38.37,37.44,75.88,75.76c7.94,8.06,14.78,8.44,22.66.2,10-10.39,20.65-20.08,30.37-30.68,5.25-5.72,9.47-6.7,16.38-2.61,13.65,8.07,28.16,15.05,43.64,18.38,13.6,2.92,16.13,10,15.94,22.77-.25,17-4,34.57,3.37,51.18H605.37c8.11-12.77,4.1-27,4.4-40.55.6-27.23,0-27.89,25.44-36.26,15.34-5,30-21.16,44.15-16.43,13.92,4.66,24,21.37,35.23,33.27,8.09,8.55,15.08,9.46,23.77.59q37.51-38.29,75.82-75.82c8.9-8.72,7.9-15.75-.65-23.78-10.49-9.86-20.23-20.5-30.69-30.39-4.68-4.43-5.71-7.94-2.28-14a217.6,217.6,0,0,0,21.51-52c1.79-6.79,5.37-8.39,11.68-8.24,13.9.31,27.82-.32,41.7.2C868.42,658.73,875.19,654.32,874,640.21ZM407.41,611.16c88.31.27,176.63.46,264.94-.16,12.64-.09,10.72,6.33,10.08,13.77-6.33,73.86-68.38,130.29-143,130.11S402.06,696,397.13,622C396.56,613.38,398.93,611.13,407.41,611.16ZM840,635.81c-12.35-.86-24.82.14-37.22-.32-9.32-.34-14.94,2.88-17.17,12.38a239.85,239.85,0,0,1-30.11,72.36c-4.37,7-3.47,12.83,2.43,18.53,10,9.67,19.31,20,29.66,29.3,6.18,5.53,5.05,8.77-.26,13.92-18.18,17.63-36.17,35.46-53.67,53.75-5.7,6-8.9,5-13.9-.47-9.08-9.85-19-18.91-28.27-28.59-6.08-6.36-12.07-7.35-19.75-2.65a233.78,233.78,0,0,1-71.11,29.26c-10.11,2.26-13.6,8.07-13.14,18.1.58,12.88-.23,25.82.27,38.71.3,7.52-1.69,10.42-9.82,10.26q-38-.75-75.95,0c-8.23.16-10-3-9.77-10.41.48-13.39-.17-26.82.25-40.21.27-8.82-3-13.88-11.81-16a242.61,242.61,0,0,1-72.41-30c-7.76-4.82-13.69-3.2-19.68,3.06-9.61,10-19.84,19.49-29.34,29.63-4.31,4.59-6.94,5.12-11.66.26-18.32-18.89-36.87-37.56-55.83-55.79-5.71-5.49-3.88-8.37.78-12.77,10.1-9.55,19.61-19.72,29.62-29.36,5.94-5.71,6.78-11.4,2.4-18.49a235.55,235.55,0,0,1-29.79-72.46c-2.09-9.33-7.88-12.72-17.28-12.36-13.39.52-26.84-.48-40.2.33-10.8.65-8.92-6.16-9-12.45-.14-6.59-1.21-12.62,9.29-12.25,21.32.76,42.69.23,64,.23,20.36,0,40.72.38,61.06-.19,8.16-.23,10.36,2,11.12,10.38,7.3,81,60.66,140.86,137,154.58A166,166,0,0,0,706.08,624c.72-10,2.74-13.13,13.25-13,40.2.7,80.42.61,120.62.05,9.82-.13,12.49,2.62,12.47,12.37S849.84,636.5,840,635.81Z"/><path class="cls-1" d="M838.35,492.73c-9.21.08-12.14-1.75-12.67-11.89-5.81-111.29-58.39-193.42-156.16-246.5-12.56-6.82-31.69-8.07-38-18.07-6.8-10.75-2.25-28.78-2.33-43.64,0-10-4.78-14.28-14.67-14.25q-74.5.19-149,0c-10,0-14.72,4.49-14.72,14.3,0,11.43-.45,22.88.13,34.28.38,7.4-1.65,11.12-9.09,14.08q-163,65-186.39,239.11c-1.37,10.24,2,24.05-3.53,30-6.51,7-20.57,2.18-31.31,2.21-11,0-15.15,4.92-14.71,15.5.42,9.92.09,19.87.09,29.81,0,26.44,0,26.44,25.7,26.44H540.13q149,0,298-.05c40.61-.06,35.64,5,35.66-35.54C873.84,488.41,878.68,492.38,838.35,492.73Zm6.33,52c-23.32-.48-46.67-.13-70-.13q-265.87,0-531.75-.14c-5.49,0-14.08,3.41-16-3.07-2.38-8.24-1.46-17.74-.45-26.51.44-3.8,5.94-2.26,9.2-2.29,15.89-.13,31.78-.08,47.67,0,6.8,0,13.9-.59,14.62-9,.81-9.45-6.14-11.66-13.86-10.93-8.16.77-8.43-3.7-8.41-9.95.26-100.95,70.69-202.5,164.78-238.17,9.46-3.59,10.52-1.13,10.36,7.49-.42,22.84,0,45.68-.18,68.53,0,8.1,1.13,16,10.82,16.33,10.87.37,11.94-8.16,11.93-16.71,0-42.21.33-84.42-.25-126.62-.15-10.45,2.77-14.24,13.23-13.09,13.66,1.5,32-5.88,39.85,3.06,6.78,7.68,2.2,25.53,2.32,38.88.17,18.87.24,37.75-.05,56.61-.13,8.13-.32,13.84,11.24,13.71,10.7-.11,11.88-4.28,11.74-13.13-.43-28.8.14-57.61-.34-86.4-.15-9.05,1.25-14.05,11.91-12.75,14.1,1.73,32.49-6.1,41.4,3.19,8.12,8.46,2.14,26.49,2.27,40.29.29,31.29.05,62.57.13,93.86,0,8.34-1.32,18.8,10.8,19s11.48-9.74,11.45-18.43c-.08-25.24,0-50.48,0-77.47,42.74,15.36,78,39.12,107.23,71.75,42.28,47.2,64.22,102.84,67.91,166,.53,9,.61,15.73-11.64,14.12-6.21-.81-10.86,3.26-10.87,9.59,0,7.27,5.33,10.15,12.09,10.19,16.88.09,33.8.72,50.63-.18,12.83-.69,10.64,7.74,9.82,14.54S860.36,545.08,844.68,544.76Z"/><path class="cls-1" d="M541.29,492.44q73.73,0,147.46,0c8.25,0,17.41-.26,17.79,10.65.43,12.22-9.53,11.84-18.15,11.84q-148.93,0-297.89,0c-7.2,0-15.23,0-16.79-8.62-2.13-11.71,6.05-13.91,15.66-13.9Q465.33,492.54,541.29,492.44Z"/></svg>