<svg id="Layer_1" data-name="Layer 1" xmlns="http://www.w3.org/2000/svg" viewBox="0 0 1080 1080"><defs><style>.cls-1{fill:#002644;}</style></defs><title>Assets</title><path class="cls-1" d="M448,800.89c-7.28,0-14.57.1-21.86,0-11.64-.2-15.43-3.66-17.48-15.54-3.65-21.2-7.57-42.35-10.86-63.61-.84-5.39-2.43-8.19-8-9.81A175,175,0,0,1,354,697c-4.37-2.41-7.23-1.86-11,.88q-26.44,19.32-53.22,38.22c-10.31,7.29-15.23,6.83-24.05-1.93q-29-28.81-57.83-57.78c-8.61-8.65-9-14.13-1.93-24.16,12.47-17.55,24.9-35.13,37.73-52.41,3.31-4.47,3.64-7.83.92-12.69a154.55,154.55,0,0,1-14.19-34.06c-1.63-5.82-4.52-8.13-10.13-9-20.31-3.2-40.56-6.81-60.86-10-14.81-2.37-18.52-6.36-18.53-21q0-39.45,0-78.9c0-13,4-17.55,16.83-19.65,20.61-3.37,41.18-7,61.81-10.16,5.93-.9,9-3.15,10.91-9.3a208.19,208.19,0,0,1,20.43-45.79c5.39-9.09,12.9-11.79,20.5-7.64s9.52,12.7,4.16,22.12a213.73,213.73,0,0,0-21.62,52.45c-2.16,8.38-7.12,12.58-15.78,13.92-20.63,3.19-41.13,7.23-61.75,10.47-4.92.78-7.12,2-7,7.44q.48,26.13,0,52.28c-.08,5.36,2,6.73,7,7.52,20.94,3.28,41.75,7.34,62.67,10.71,7.89,1.27,12.46,5.25,14.5,12.86a216.15,216.15,0,0,0,23,54.94c4.17,7,2.71,13.07-1.83,19.29-12.32,16.88-24.27,34-36.71,50.81-3.26,4.41-3.24,6.93.9,10.86,12.41,11.76,24.46,23.93,36.32,36.26,3.64,3.79,6.13,3.78,10.22.76,16.81-12.41,33.95-24.37,50.79-36.74,7-5.11,13.59-5.65,21.07-1.2A199,199,0,0,0,409.7,688c8.91,2.28,13,7.75,14.38,16.57,3,19.7,6.58,39.31,9.63,59,1,6.15,2.8,9.51,10.09,8.82,8.48-.8,17.09-.28,25.65-.16,11.25.16,17.46,5.27,17.59,14.26.14,9.3-5.66,14.2-17.16,14.36C462.59,801,455.3,800.89,448,800.89Z"/><path class="cls-1" d="M468.51,147c13.62,0,27.24-.18,40.85.05,11.73.2,15.64,3.66,17.68,15.42,3.74,21.49,7.52,43,10.73,64.57.79,5.28,2.81,7.45,7.78,8.93a170.83,170.83,0,0,1,34.1,14.07c5.42,3,9.22,2.92,14.39-.92,17-12.66,34.47-24.69,51.81-36.88,10.6-7.45,15.45-7,24.79,2.26q28.62,28.49,57.11,57.1c8.83,8.87,9.26,14.5,1.9,24.93-12.41,17.58-24.81,35.17-37.48,52.56-3,4.06-3.49,7.07-.93,11.77A170,170,0,0,1,706,396.73c1.42,5.07,4.3,7,9.15,7.74,21,3.21,41.86,6.62,62.77,10,13.19,2.11,16.82,6.26,16.87,19.39,0,12,.1,24.07,0,36.11-.11,10-6,16.52-14.48,16.33-8.13-.18-13.75-6.49-14-15.95-.15-5.7-.77-11.52.12-17.08,1.62-10-3.25-12.77-12-13.91-17.87-2.32-35.59-5.77-53.46-8.12-10.72-1.41-17.07-6.19-19.64-17.12-4.15-17.62-11.42-34.15-20.6-49.74-4.61-7.82-4.17-14.61,1.16-21.91,12.13-16.6,23.68-33.64,35.92-50.16,3.59-4.86,3.07-7.56-1.14-11.57Q678.39,263.36,661,245.13c-3.89-4.08-6.47-4.27-11-.94-16.57,12.18-33.66,23.65-50.18,35.89-7.68,5.69-14.5,5.94-22.64,1.09a186.76,186.76,0,0,0-50.65-20.9c-9.14-2.29-13.8-7.53-15.14-17-2.86-20-6.45-40-9.57-60-.77-5-2.27-7.79-8.29-7.64-17.09.41-34.21.35-51.3,0-5.27-.11-7.3,1.81-7.9,6.71a134.81,134.81,0,0,1-2.76,15.88c-2,8.07-8.42,12.11-16.38,10.81a14.06,14.06,0,0,1-11.57-16c1.54-11.27,3.35-22.53,5.54-33.69,1.73-8.81,8-12.44,16.61-12.44Z"/><path class="cls-1" d="M465.13,644.49C397.74,641.1,346,611.18,315.68,550.42c-30.23-60.59-24.17-120.06,13.83-176.12,6.72-9.91,14.87-12.34,22.25-7.4,7.7,5.15,8.06,14,1,24.09-59.32,84.88-15.4,199.34,85.23,222.08,12.45,2.81,25.06,3.25,37.78,2.88,10.94-.31,17.31,5.19,17.27,14.34,0,8.79-5.82,13.8-16.5,14.18C472.74,644.61,468.93,644.49,465.13,644.49Z"/><path class="cls-1" d="M467.12,303.55c91.76.15,166.68,71.27,171.44,161.11.15,2.84.26,5.7.13,8.54-.39,8.81-6,14.89-13.81,15.19-8.2.33-14.42-5.75-14.67-15.13-.77-29.2-8.85-56-25.5-80.12A142.1,142.1,0,0,0,407,345.74c-2.28,1.09-4.46,2.41-6.8,3.35-8.1,3.26-16.18.52-19.46-6.48s-.66-15.17,7.05-19.25C413.12,310,440.1,303.06,467.12,303.55Z"/><path class="cls-1" d="M232.16,325c-3.86,0-8-2.09-10.9-6.22-6-8.56-11.92-17.15-17.53-25.95-4.28-6.71-3.46-13.33,2.18-19q30.85-30.95,61.85-61.76c6.84-6.8,13.93-5.9,21.32-.59C306.55,224,324.28,236.2,341.59,249c5,3.68,8.83,4.23,14.42,1.24A215.76,215.76,0,0,1,401,232.78c11.93-3.29,19.92-.1,22.45,9,2.35,8.46-3,15.39-14.36,18.49-17.16,4.67-33.77,10.88-48.89,20.2-9.56,5.88-17.2,5-25.93-1.58-15.65-11.81-32-22.65-47.84-34.26-4.59-3.37-7.4-3.92-11.73.68-11.72,12.44-23.92,24.45-36.25,36.29-3.64,3.51-4.37,6.06-1.06,10.14a69.6,69.6,0,0,1,8.23,12.71C250.25,313.9,243.72,324.62,232.16,325Z"/><path class="cls-1" d="M939.05,609.38c-.11-55-39.09-93.88-94-94q-114.07-.15-228.15,0a102.93,102.93,0,0,0-25.42,2.71c-42.54,10.74-68.87,44.91-69.2,90.45-.28,38.34-.06,76.68,0,115,0,20.59,0,41.19,0,61.79s-.46,41.21.38,61.78c1.87,45.47,37.49,83.46,83,84.39,81.4,1.66,162.88,2.17,244.27.43,54.77-1.17,89.19-40.31,89.2-95.38Q939.11,723,939.05,609.38Zm-28.63,229.7c0,38.32-25.89,64.15-64.33,64.65H730.16c-37.69,0-75.41-.86-113.07.23-39.24,1.15-67.16-29.46-66.57-66.54,1.2-76,.3-152,.39-228,0-39.56,25.84-65.28,65.46-65.31q113.55-.09,227.1,0c41.25,0,66.91,25.64,67,66.95Q910.57,725.06,910.42,839.08Z"/><path class="cls-1" d="M469.3,408c-36.6-.38-66.18,28.28-66.67,64.6-.5,37.26,28.13,67,64.82,67.44s66.51-28,67.14-64.17C535.26,438,506.7,408.36,469.3,408Zm-.64,103.43c-21.29.05-37.62-16.59-37.39-38.08.24-21,16.56-36.81,37.76-36.66,21,.15,37,16.41,36.94,37.51A36.86,36.86,0,0,1,468.66,511.39Z"/><path class="cls-1" d="M714.12,781c0-19.32-.26-38.64.15-57.95.14-6.5-1.45-8.7-8.28-8.54-15.26.37-21.33-3.93-21.55-13.73-.24-10.15,6.39-14.63,21.79-14.66,16.16,0,32.31-.08,48.46,0,11.38.06,17.44,5,17.56,14.1.11,9.22-5.94,14.34-17.16,14.47-12.25.15-12.23.15-12.23,12.72,0,37-.16,74.11.14,111.16.06,7-1,10-9.11,9.78-19.77-.56-19.77-.1-19.74-19.85q0-23.74,0-47.51Z"/><path class="cls-1" d="M814.21,802.78c0-12.66-.21-25.33.1-38,.12-5-1.46-6.89-6.45-6.35a51.87,51.87,0,0,1-9.49,0c-8.11-.63-12.82-5.16-13.39-13.23s3.94-14.42,11.64-14.72c21.48-.82,43-.85,64.52,0,7.65.32,12.18,6.8,11.46,14.9s-5.6,12.39-13.71,13.05c-16.06,1.31-16,1.32-16,17.62,0,21.53-.16,43.06.12,64.58.07,5.55-1.12,7.61-7.24,7.66-21.52.19-21.51.46-21.53-20.87Z"/><path class="cls-1" d="M646.54,676.39c0,22.79-.18,45.59.12,68.38.08,5.73-1.46,7.51-7.38,7.54-21.35.14-21.34.38-21.34-21,0-41.16.15-82.32-.15-123.47,0-6.59,1.65-8.55,8.35-8.49,20.4.18,20.4-.12,20.4,20Z"/><path class="cls-1" d="M632.48,783.4c9.17,0,18.35-.15,27.51,0,10,.22,16.58,6.19,16.52,14.54s-6.63,13.82-16.79,14.07c-13.19.32-13.19.32-13.16,13.76v1c0,23.46,0,23.32-23.47,21.55-4.27-.32-5.33-1.74-5.22-5.66.23-7.9-.24-15.83.16-23.72.26-5.29-1.29-7.64-6.84-6.95a45.86,45.86,0,0,1-8.53,0c-8.35-.53-14.08-5.89-14.51-13.39a14.4,14.4,0,0,1,14-15c10.1-.49,20.24-.11,30.36-.11Z"/><path class="cls-1" d="M842.87,648.13c0,14.22-.19,28.44.09,42.65.1,5-.91,7.1-6.63,7.23-22.12.49-22.12.72-22.12-21.09,0-22.74.23-45.49-.14-68.23-.11-6.66,1.06-9.47,8.64-9.37,20.14.27,20.14-.12,20.16,20.38Z"/><path class="cls-1" d="M714.1,626.55c0-4.42,0-8.84,0-13.26.18-15.84-2-14.07,14.28-13.55,4.79.16,13.57-4.86,14.22,4.87,1,14.77,2.06,29.94-.29,44.39-1.91,11.75-13.56,2.62-20.47,4.93-3.72,1.25-8.27,1.06-7.85-5.61C714.45,641.09,714.1,633.81,714.1,626.55Z"/></svg>