<svg id="Layer_1" data-name="Layer 1" xmlns="http://www.w3.org/2000/svg" viewBox="0 0 1080 1080"><defs><style>.cls-1{fill:#002644;}</style></defs><title>Assets</title><path class="cls-1" d="M843,808.37c-7.53-23.53-1.3-36.38,12.4-46.81,10.08-7.67,14.62-15.63,1.42-25.34-23.2-17.07-21.39-36.82-7-59.34,11.28-17.7,19.9-37.63,22.6-58.35,2.92-22.34,13.47-30.17,34.52-26.87,20.36,3.2,31.1-3.3,26.82-25.77-.67-3.53-.09-7.29-.09-10.95,0-39.32,0-40.24-38.24-41.49-14.72-.49-19-7.66-21.16-19.35-5.12-27.23-14.45-53.4-30.32-75.68-13.31-18.7-10.49-31.37,6.44-43.35,17.91-12.67,17.3-24.45-.22-36.74-3.69-2.59-6.54-6.37-9.78-9.6-25.55-25.51-26.2-26.18-52.15-1.07-11.14,10.79-19.52,9.75-30.92,2-22.08-15-46.34-26.75-72.51-31.06-23.1-3.82-31.74-14.28-27.54-36.52,3.92-20.74-4.62-28-25.22-25.3-12.61,1.64-25.61.2-38.43.36-5.27.07-11.94-1.71-14.85,3.9-2.79,5.36,1.72,15.65-12.14,9.5-11.6-5.16-11.16-12.93-10.54-22,.56-8.29,4.55-13.44,13.81-13.4q46.71.15,93.42-.06c16.81-.07,17.19,12.24,15.35,22.89-4.84,28,5.94,42.42,34.17,45.18,6.09.59,12.44,3.71,17.64,7.19,26.74,17.95,51.31,24.89,72.3-8.62,6.36-10.15,15.27-6.75,22.95,1,20.55,20.86,41.07,41.77,62.26,62,13.63,13,4.4,21.65-5.22,28.78-21,15.58-25.76,32.31-8.64,53.94A51.93,51.93,0,0,1,884,449.78c5.4,30.61,18.86,48.59,53.85,41.59,14.42-2.88,18.26,7.33,18,20.49-.58,26.51-1,53.07.14,79.54.74,16.9-5.92,25.14-22,22-29.7-5.7-43.32,7.75-47.53,35.42A39.81,39.81,0,0,1,880.31,664c-17.75,27.35-25.54,52.71,8.89,74.34,10.81,6.79,4.89,15.28-2.26,22.67C873.06,775.36,859.73,790.25,843,808.37Z"/><path class="cls-1" d="M792.35,808.43c-1.82-12-10.53-4.63-14.91-3.4-21.72,6.12-39.2,20.78-59,30.94-65.66,33.76-133,43-199.88,6.16-67.38-37.08-133.36-36-198.47,2-37.42,21.83-74.47,25.7-114.62,10.82-28.79-10.66-54.71-26.31-81.48-44.4v27.32c71.82,47.76,143.14,68.58,226,17.16,47.73-29.64,103.89-25.33,154.11,5.25,38.21,23.28,79.87,28.26,123.36,26.5,60.23-2.45,107.86-37.24,159.71-61.22C795,821.94,793.28,814.51,792.35,808.43Z"/><path class="cls-1" d="M787.07,643.81c37.59-101.46,14-188.77-64.38-239.73-45.37-29.49-94.54-36.54-147-24.51-7.44,1.7-17.55,12.05-22.12-3.66-4.69-16.15,9.08-16,18-18,80.34-18,150.33,2,204.95,63.42,53.84,60.53,64.89,131.31,39.84,208.3C811.44,644.77,803.16,648.14,787.07,643.81Z"/><path class="cls-1" d="M350.39,492.82c-12.3.75-12.26-6.54-9.43-14.19,7.27-19.58,12.86-40.32,23.48-58,10.33-17.17,10.72-28.79-6-40.41-21.37-14.87-22.23-29.29-1-46.57,17.63-14.32,33.24-31.33,48.61-48.18,11.58-12.7,21.69-12.66,31,.84,15.76,22.8,33.45,26.8,56.15,9.43,5.88-4.49,15.12-12.92,21.36,2,5,12.06-4,13.39-11,16.92-6.51,3.26-13.7,5.9-19.1,10.54-17.74,15.22-32.45,12.74-45.13-6.1-11.68-17.34-23.09-17.36-35-.16-2.56,3.69-6.38,6.51-9.61,9.74-25.69,25.64-26,25.93-1.2,53.26,7.91,8.71,10.53,16,3.28,26.27-15.32,21.77-25.75,46-33.41,71.4C361.31,486.9,360,494.25,350.39,492.82Z"/><path class="cls-1" d="M790.58,741.6c2.11,8.78,6.44,17.84-2.88,23.19C717.86,804.88,646.75,841,562,823.3,541.28,819,520.9,813,503.61,798.45c11.68-5.36,22.23-9.71,35.13-5.13,71.1,25.26,136.89,10.52,199-28C754.31,755.14,770.9,745.62,790.58,741.6Z"/><path class="cls-1" d="M213.69,798.4c-32.32-11.6-61-29-89.66-47.34v27.65c28.68,17.61,57.6,34.48,90.55,42.9,42.43,10.84,82.37,6.24,122.6-23.19C292.75,792.26,254.08,812.89,213.69,798.4Z"/><path class="cls-1" d="M568.3,763.17c12.2-11.09,21.7-18.43,36.58-17.19,51.33,4.3,97-12.8,139.71-39.47,14.22-8.89,28.64-17.11,45.67-21.1,2.56,9,6.26,17.65-4.38,24.25-63.56,39.41-129.72,69.4-207.5,57.48C575.92,766.76,573.63,765.31,568.3,763.17Z"/><path class="cls-1" d="M542.24,379.55c0,22.15-16.5,38.48-38.72,38.41-21.55-.07-39.25-17.54-39.16-38.66.08-20.73,18.61-39.1,39.36-39C525,340.37,542.27,358,542.24,379.55Z"/><path class="cls-1" d="M124,716.68c34.64,22.91,71.26,41.22,114.51,47.26-32.21-32.27-76.58-46.1-114.51-75Z"/><path class="cls-1" d="M581.07,285.45c-1.85,19.21-12.51,28.68-29.37,28.09-15.77-.56-26.18-11.24-26.14-27,0-16.81,9.82-27.81,27.84-27.71S579.71,269.67,581.07,285.45Z"/><path class="cls-1" d="M489,430.76c-15.17,16.3-28.42,34.19-36.59,55-4.32,11-11.76,16.07-21.17,11.53-11.73-5.66-1.84-14.83,1.13-20.91,7.27-14.94,16.64-28.83,24.79-43.36C466.62,416.2,477.1,417.12,489,430.76Z"/><path class="cls-1" d="M515.59,215c-1.47,12.95-8.47,21.63-21.12,22-14,.36-22.74-8.19-22.56-22.55.16-12.71,7.16-21,20.61-21.43C507.47,192.46,514,201.45,515.59,215Z"/><path class="cls-1" d="M698.53,605.71c-4.44-13.08-17.12-8.69-26.63-8.59-19.57.21-37.56,2.13-46.81-22.62C619.43,559.35,601.9,552,585.76,552c-16.31,0-17.45-7.39-17.12-20.1.67-26,.14-52.08.22-78.13,0-7.83-.6-16.18-10.19-16.77-11.82-.73-12.25,8.61-12.23,17.43,0,27-.89,54,.37,80.9.7,15.11-6.32,16-18.23,16.12-12.43.11-18.56-2.18-18-16.6,1.08-26.93.28-53.93.27-80.91,0-9.16-2.06-18-13.28-16.91-10,.94-9,10.27-9,17.62-.12,25.11.21,50.23-.21,75.34-.15,9.14,4.64,22-13.05,21.22-11-.49-22.93,2.58-22.06-15.63.63-13.21-10-13.19-19.76-13.17-52.16.09-104.34.63-156.49-.29-18.05-.31-22,7.4-21.6,23.44.87,31.61-.09,63.25.44,94.87.18,11-1.24,17.8-14.76,16.21-20.25-2.38-20.15,11-18.25,25.17,6.32,47,47.24,84.94,95,86.72,28.83,1.07,57.74.2,86.62.2v.2c18.63,0,37.31-.89,55.88.17,57.9,3.29,104.93-17.76,144.12-59.88,26-27.91,54-53.91,80.76-81.12C691.34,621.86,702.24,616.66,698.53,605.71ZM293.29,544.54c40.91.73,81.84.21,122.76.36,6,0,15.18-2.32,14.79,7.43-1,26.17,17.31,21,32.41,21.09,36.27.17,72.54.11,108.82.05,16.31,0,31.19,2.3,39.62,23.44-36.39,0-70.52,1.25-104.5-.46-21.46-1.08-38.41,4.19-50.73,21.66-23.06,32.72-53.9,44.2-93.54,39.08-22.87-3-46.46-1.23-69.68-.27-12.55.52-15.83-3.88-15.48-15.83q1.17-40.35,0-80.78C277.38,548.24,280.87,544.32,293.29,544.54Zm253.64,183.1a115,115,0,0,1-63.46,18.69c-53.11.12-106.22.39-159.33,0-33-.22-56.19-16.62-71.13-45.46-7.54-14.56-8.36-23.13,13.28-22.47,43.75,1.33,87.61-.52,131.36.84,20.08.62,36.53-2.88,48.5-19.87,24.21-34.33,56.71-45.32,98.5-41,36.48,3.75,73.65.78,119,.78C620.45,658.41,589.77,699.46,546.93,727.64Z"/><path class="cls-1" d="M518.26,629.48c-25.07-.24-45.6,21.14-44.75,46.62.82,24.67,20.39,43,45.39,42.54,24.4-.46,44.09-20.43,43.91-44.53C562.63,650.66,541.72,629.72,518.26,629.48Zm0,66.64c-13.14,0-21.22-7-22.18-20-1.1-14.74,8-21.66,21.61-24.4,13.38,2.34,23,9.42,22.28,23.71C539.42,687.78,531.76,696.08,518.29,696.12Z"/><path class="cls-1" d="M400.47,566.48c-20.2,1.42-33,11.31-33.59,32.49-.66,21.37,12.24,33.33,32.1,34.07,20.26.77,33.91-11.83,34.17-32.17C433.41,581.1,421.79,568.44,400.47,566.48Zm.35,44.16c-6.22.77-10.13-3.41-10.73-9.52-.65-6.57,4.22-9.21,7.93-11.25,8,.17,12,4,12.58,9.77C411.19,605.8,406.55,609.94,400.82,610.64Z"/><path class="cls-1" d="M327.23,566.48c-20.2,1.42-33,11.31-33.59,32.49-.65,21.37,12.24,33.33,32.1,34.07,20.26.77,33.92-11.83,34.17-32.17C360.17,581.1,348.55,568.44,327.23,566.48Zm.36,44.16c-6.22.77-10.13-3.41-10.74-9.52-.65-6.57,4.22-9.21,7.93-11.25,8,.17,12,4,12.58,9.77C338,605.8,333.31,609.94,327.59,610.64Z"/></svg>