<svg id="Layer_1" data-name="Layer 1" xmlns="http://www.w3.org/2000/svg" viewBox="0 0 1080 1080"><defs><style>.cls-1{fill:#002644;stroke:#002644;stroke-miterlimit:10;stroke-width:6px;}</style></defs><title>Assets</title><path class="cls-1" d="M888.18,453.08c-1.24-6.31-3.6-8.38-9.93-8.91q-22.61-1.89-45.22-3.75c-2.35-.19-4.06-.44-4.89-3.36A280.34,280.34,0,0,0,804.4,379.5c-1.32-2.42-1.36-4,.57-6.26,9.8-11.32,19.37-22.84,29-34.27,4.71-5.57,4.9-8.38.83-14.4a357.85,357.85,0,0,0-91.72-93.34c-2.74-1.93-2.59-3-.86-5.46,10.27-14.37,20.38-28.86,30.59-43.28,1.42-2,2.58-4,2.45-6.25,0-5.89-3.79-8.94-10.77-8.94-71.75,0-143.51.25-215.27,0a417.89,417.89,0,0,0-77.3,6.56c-7.67,1.41-9.33,3-10.08,10.74-1.44,14.91-2.78,29.82-3.93,44.75-.22,2.82-1,4.12-3.83,4.94a279.19,279.19,0,0,0-56.72,23.51c-3,1.65-4.72,1.07-7-.9q-17.4-14.9-35-29.56c-3.94-3.31-7.68-3.55-11.9-.73A353.31,353.31,0,0,0,244.92,325c-3.83,5.73-3.56,8.53.77,13.65,9.66,11.44,19.22,23,29,34.27,2.14,2.47,2.12,4.21.62,7a279.1,279.1,0,0,0-23.1,55.89c-.91,3.21-2.33,4.54-5.78,4.78-14.93,1-29.85,2.39-44.77,3.63-6.26.52-8.85,2.71-10,8.92-1.22,6.77-2.35,13.57-3.29,20.38a361.82,361.82,0,0,0,3.11,117.14c1.37,7.3,3.47,9.32,10.52,9.94,14.77,1.29,29.53,2.62,44.32,3.63,3.4.23,4.88,1.28,5.83,4.58a277.7,277.7,0,0,0,23.52,56.7c1.35,2.46,1,3.85-.67,5.83-9.46,11-18.76,22.18-28.16,33.25-5.93,7-6.06,9.36-.85,17a355.75,355.75,0,0,0,59.38,67.09c2.26,2,2.52,3.38,1,5.91-6.81,11.28-13.44,22.66-20.13,34q-20.62,35-41.22,70c-2.82,4.82-2.2,9.31,1.3,12.15,3.83,3.09,8.23,2.61,12.43-1.42,4.42-4.25,8.75-8.61,13.25-12.79,28.9-26.85,55-56.64,85.93-81.39,11.33-9.08,22.25-18.66,33.31-28.08,1.64-1.4,2.83-1.93,5-.73a287.45,287.45,0,0,0,57.93,24.08c2.56.74,3.45,1.92,3.66,4.64,1.22,15.37,2.67,30.72,4.11,46.07.6,6.37,2.31,8.2,8.75,9.44a361.59,361.59,0,0,0,138.39,0c6.27-1.22,8.38-3.45,8.94-9.87,1.33-14.91,2.64-29.83,3.71-44.76.24-3.3,1.28-4.83,4.57-5.79a276.69,276.69,0,0,0,56.3-23.34c2.7-1.49,4.34-1.27,6.62.7,11.44,9.89,23,19.62,34.59,29.35,4.84,4.08,8.1,4.15,13.36.63a356.31,356.31,0,0,0,97.89-97.78c3.57-5.28,3.36-8.68-.9-13.72-9.76-11.56-19.45-23.16-29.29-34.64-1.71-2-2-3.45-.71-5.86a287,287,0,0,0,24-58c.64-2.21,1.65-3,4-3.17,15.23-1.13,30.45-2.45,45.67-3.75,6.75-.57,9-2.57,10.3-9.08A358.38,358.38,0,0,0,888.18,453.08ZM286.12,745c-7.95-9-15.22-18.48-22.32-28.14-1.74-2.37-1.58-3.76.36-6,9.81-11.31,19.4-22.81,29-34.25,3.78-4.47,4.06-8,1.14-13.1a287.61,287.61,0,0,1-28.06-67.87c-1.42-5.24-3.68-7.19-9.08-7.67-15.22-1.35-30.42-2.77-45.65-4-2.88-.23-4-1.17-4.52-4.09A350.16,350.16,0,0,1,207,465c.5-3,1.56-4.25,4.73-4.48,15.08-1.09,30.14-2.44,45.21-3.67,5.23-.43,7.92-2.57,9.26-7.56A289.14,289.14,0,0,1,294.41,381c2.85-5,2.62-8.31-1.06-12.67-9.64-11.45-19.26-22.92-29-34.26-2-2.29-2.27-3.82-.38-6.45a350.37,350.37,0,0,1,80.88-81c2.83-2,4.45-2,7.12.32,11.16,9.74,22.57,19.2,33.91,28.75,4.57,3.84,7.45,4.2,12.67,1.22a285.3,285.3,0,0,1,67.4-28c6.57-1.77,8-3.72,8.65-10.8,1.28-14.47,2.63-28.94,3.63-43.42.24-3.55,1.48-4.75,4.85-5.28a375.6,375.6,0,0,1,54.09-4.77c3.75,0,4.6.5,2.79,4.25Q511.33,248.33,483,307.94c-6.32,13.24-12.66,26.47-18.89,39.75a9.83,9.83,0,0,1-4.9,4.84c-62,31.38-98.2,81.53-106.09,150.57-5.79,50.63,8.47,96.33,39.94,136.48,2,2.58,2.09,4.17.46,6.91q-37.25,63-74.27,126.14c-.6,1-1.34,2-2.17,3.14A310.27,310.27,0,0,1,286.12,745Zm84.11-207.82A165.66,165.66,0,0,1,390.37,440a161.26,161.26,0,0,1,58.28-61.2C422.85,431.86,400.17,486.29,370.23,537.16ZM382,550.39q31.45-.07,62.9,0c1.43,0,2.94-.4,4.77.62-14.8,25.16-29.57,50.24-44.63,75.84-18.08-23.6-29.2-49.63-34.12-79.91C374.8,550.29,378.34,550.4,382,550.39ZM296.33,848.54l-1.14-1.07L456.24,573.94c5.16-8.78,10.35-17.53,15.47-26.33,4.6-7.92.9-14.53-8.23-14.55-23.22-.07-46.43,0-69.51,0-.81-1.15-.1-1.92.3-2.65,24.22-43.62,44-89.41,65.72-134.25,25.95-53.61,51.38-107.46,77-161.21,7.48-15.66,15-31.31,22.35-47,1.1-2.33,2.3-3.31,5-3.3q91.46.12,182.91.07c.58,0,1.15.07,1.68.11.62,1.37-.4,2.05-1,2.85Q689.29,271,630.53,354.31,613.72,378.18,596.89,402c-2.35,3.3-3.54,6.7-1.59,10.45s5.41,4.7,9.47,4.69q63.36-.09,126.73,0h7.06ZM635.62,380.77A181.13,181.13,0,0,1,659.11,400c-13.16,0-24.81,0-36.47,0-2.37,0-2.65-.78-1.38-2.58,3.71-5.26,7.44-10.51,11.12-15.79C633.26,380.4,634.07,379.7,635.62,380.77Zm24.53,262.76c-52.34,51.78-123.39,58.2-171.15,41.23L703.63,475.4C718.84,521.67,712.19,592.06,660.15,643.53Zm212.92-64.37c-.53,3.32-1.72,4.67-5.29,4.93-15.09,1.09-30.14,2.62-45.21,3.84-4.44.36-7.39,2.37-8.54,6.62a295,295,0,0,1-28.92,69.9c-2.61,4.55-1.9,7.84,1.84,12.28,9.66,11.44,19.22,23,29,34.28,1.85,2.14,1.87,3.49.3,5.68a347.73,347.73,0,0,1-81.91,81.87c-2.29,1.63-3.63,1.48-5.68-.29-11.24-9.66-22.6-19.18-33.92-28.74-5.39-4.55-7.7-4.84-13.71-1.47-21.52,12.06-44,21.68-67.93,27.92-5.2,1.36-7.24,4-7.72,9.68-1.25,14.92-2.58,29.83-3.61,44.77-.21,3.15-1.15,4.28-4.3,4.79a349.59,349.59,0,0,1-99.81,2.09c-5.35-.67-10.66-1.64-16-2.27-2.45-.28-3.15-1.39-3.33-3.75-1.12-14.48-2.41-28.95-3.65-43.42-.76-8.88-2.12-10.32-10.54-12.62a285.76,285.76,0,0,1-58.63-23.57c-3.23-1.71-3-2.7-.66-4.93q24.7-23.89,49.26-48c5.9-5.75,11.84-11.46,17.61-17.33,2-2.05,3.69-2.55,6.62-1.61,64.4,20.77,124.3,11.61,177.67-30,48.35-37.73,71.73-88.65,72-149.94a170.15,170.15,0,0,0-9-54.74c-.89-2.67-.57-4.31,1.45-6.26,14.65-14.16,29.15-28.46,43.77-42.64,3.27-3.18,5.36-6.59,3.43-11.15-1.86-4.39-5.65-5.18-10-5.14-11.68.13-23.37.05-35,.05-12.14,0-24.27-.05-36.41,0a6.44,6.44,0,0,1-5.46-2.31,173,173,0,0,0-34.21-30.28c-2.49-1.67-2.15-2.9-.7-4.95q39.82-56.29,79.56-112.64c.43-.61.9-1.19,1.38-1.77,2.75-3.28,5.16-3.9,9.2-1a354,354,0,0,1,80.12,80.55c1.62,2.26,1.84,3.66-.24,6.05-9.92,11.4-19.55,23.06-29.25,34.65-3.65,4.36-4.08,7.49-1.3,12.29a290.38,290.38,0,0,1,28.39,68.2c1.7,6.12,3.84,7.51,10.26,8,14.78,1.17,29.54,2.57,44.32,3.63,3.26.24,4.23,1.7,4.7,4.59A356.3,356.3,0,0,1,873.07,579.16Z"/></svg>