<svg id="Layer_1" data-name="Layer 1" xmlns="http://www.w3.org/2000/svg" viewBox="0 0 1080 1080"><defs><style>.cls-1{fill:#002644;}</style></defs><title>Assets</title><path class="cls-1" d="M427.11,325.25c-4.42-4.17-8.74-8.46-13.3-12.47-2.76-2.43-2.37-4,0-6.63,14.75-16.45,14.67-16.52,30.17-1,8.05,8.05,16.18,16,24.1,24.2,7.1,7.34,7.29,14,.35,21.09-11.61,11.94-23.55,23.56-35.22,35.45-2.6,2.66-4.47,3.62-7.23.2-4.47-5.53-13.71-9.51-13.52-15.68.15-5.15,8.3-10.06,13.9-16.14a212.85,212.85,0,0,0-36.71-.46C300.59,360,225.78,395.67,166.41,462.67c-4.75,5.36-7.16,4.92-12,.65-14.05-12.28-14.42-12.23-1.72-25.66Q244.44,340.58,377.52,328C393.77,326.53,410,326.83,427.11,325.25Z"/><path class="cls-1" d="M889.88,199.75c16.61,34.95,24.52,70.37,23.18,107.57-1.72,47.86-17.17,91-45.65,129.56-3.15,4.27-5.21,4.4-8.92.94-4.64-4.34-12.42-7.32-14-12.4-1.69-5.41,6-10.28,9.27-15.54,39.25-62.28,42.49-127,12.74-194.28-1.8,9-3.77,18-5.34,27-.84,4.89-2.51,6.8-8,5.72-20-3.91-20-3.7-15.8-23.64,3.15-14.9,6-29.86,9.11-44.76,2.25-10.76,8-14.53,18.48-12.45,19,3.77,38,7.79,57.05,11.11,6.49,1.13,7,3.95,5.84,9.46-4.07,18.72-3.93,18.74-22.9,14.68C900.36,201.76,895.77,200.91,889.88,199.75Z"/><path class="cls-1" d="M845.51,283c-.81-6.89-4.16-11.13-10.78-13.14-9.53-2.9-19-6-28.49-9-10.48-3.32-12.32-7.88-7.13-17.89,4.47-8.6,8.87-17.23,13.48-25.75,3.45-6.36,3-12-1.69-17.65A185.24,185.24,0,0,0,787.42,176c-5.82-4.92-11.67-5.34-18.35-1.61-8.94,5-18.11,9.55-27.24,14.19-7.24,3.68-12.86,1.39-15.34-6.18-2.59-7.89-5.66-15.68-7.45-23.75-2-9.25-6.26-16-15.75-18.52h-35c-7.71,3.17-11.79,8.87-13.66,17.07-2,8.6-5.16,16.93-7.92,25.34-2.35,7.14-8,9.62-14.65,6.27-9.64-4.84-19.19-9.89-28.74-14.91-6.07-3.19-11.62-2.73-17,1.71A189.94,189.94,0,0,0,562.78,199c-4.91,5.81-5.73,11.57-2,18.3,5,9.23,9.83,18.6,14.56,28,3.35,6.65,1,12.5-6.06,14.82q-15.37,5.07-30.85,9.79c-6.26,1.91-9.68,5.81-10.54,12.38a145.24,145.24,0,0,0-.22,34.05c.8,7.56,4.28,12.12,11.73,14.16,8.8,2.4,17.44,5.39,26.15,8.12,12.35,3.86,14.09,7.94,8.2,19.29-4.46,8.6-8.91,17.21-13.42,25.78-3,5.79-2.54,11.14,1.56,16.24a173.41,173.41,0,0,0,24.66,24.7c5.36,4.44,10.94,4.72,17,1.53q13.95-7.4,28-14.57c7.31-3.71,12.82-1.43,15.31,6.22,3.25,10,6.55,20,9.55,30.07,2,6.62,6,10.15,12.93,11a151.84,151.84,0,0,0,33.22.24c7.93-.76,12.62-4.43,14.78-12.16,2.62-9.31,5.8-18.48,8.75-27.7,3.08-9.6,8.26-11.68,17.42-7,8.36,4.32,16.85,8.41,25,13.12,7.26,4.2,13.47,3.61,19.74-1.86a222.36,222.36,0,0,0,21.77-21.75c5.4-6.19,6.43-12.33,2.21-19.7-5-8.64-9.31-17.63-13.83-26.51-3.91-7.68-1.59-13.2,6.47-15.78,9.75-3.11,19.46-6.38,29.27-9.31,6.89-2.06,10.64-6.18,11.48-13.5A148,148,0,0,0,845.51,283Zm-30.7,25.75c-9.12,2.18-17.94,5.57-27,8.21-6.34,1.86-9.35,6.41-12.91,11.75-13.48,20.23-2.55,36.66,7.11,53.32,3,5.12,3.17,8.46-1.5,12.68-3.66,3.31-6.27,4.15-10.69,1.58-8.13-4.73-16.67-8.73-25-13.2-5-2.71-10-3-15-.32a2.61,2.61,0,0,1-.76.35c-24.14,3.77-28.21,23.27-32.82,42.18-1.45,5.93-4,8.75-10.71,8.28-4.74-.34-6.69-1.78-7.88-6.32-2.31-8.82-5.46-17.42-8-26.17-1.86-6.38-6.33-9.48-11.94-12.74-16.07-9.34-30.75-7.91-45.22,3-2.18,1.63-5,2.44-7.34,3.86-4.47,2.69-8,4.36-12.86-.66-4.71-4.82-3.78-8.25-.87-12.82,1.63-2.56,2.82-5.39,4.24-8.09C608,350.1,608,350.13,597,326.2c-2.18-4.74-5.72-7.3-10.39-8.78-9.49-3-18.9-6.35-28.54-8.78-5.71-1.44-4.56-5.26-4.68-9s-.4-6.84,4.67-8.13c9.37-2.38,18.48-5.74,27.77-8.47,6.4-1.88,9-6.87,12.66-12,14.56-20.53,1.33-36.58-7.47-53.3-2.59-4.91-3-7.92,1.41-12.06,3.9-3.7,6.72-4.35,11.37-1.62,7.86,4.62,16.18,8.45,24.21,12.81,5.3,2.87,10.16,2,15.86.53,18.25-4.59,28.19-15.88,30.82-34.21a44,44,0,0,1,2.08-7.17c1.54-4.85,1.93-9.64,9.7-9.64,7.5,0,8.51,4.14,10,9.26,2.44,8.22,5.13,16.37,7.57,24.59a15.45,15.45,0,0,0,10.47,10.89,3.27,3.27,0,0,1,.77.31c19.37,13.62,36.15,3.89,52.34-6.48,7.39-4.74,11.47-2,15.71,3.59.83,1.08,2,2,1.48,4-1.7,3.32-3.58,7-5.48,10.7-.89,1.72-1.53,3.67-2.77,5.09-13.79,15.69-7.29,31.22.22,46.76,2.25,4.68,6.51,6.59,11.09,8,9,2.83,17.84,6.08,27,8.26,5.52,1.33,5.1,4.75,5.1,8.67S820.33,307.43,814.81,308.75Z"/><path class="cls-1" d="M923.77,577.13c-2.4-.64-4.68-1.78-7.1-2.29-12.73-2.66-15.6-12.73-10-23.62,11.13-21.5,10.49-22.51-7-39.7l-1.19-1.17c-14.27-13.7-15.46-13.89-33.16-5.59-2.75,1.3-5.64,2.35-8.28,3.84-2.93,1.64-5.42.91-8.56.23-9.35-2-9.11-10.33-11.49-16.57-6.48-17-7.86-18.29-25.6-18.8-28-.81-28.13-.74-37.87,26.18-3.4,9.41-10.19,12.28-19.21,8.09-2.26-1-4.51-2.12-6.75-3.2-16.77-8.09-18.23-7.87-31.92,5-1.41,1.33-2.81,2.68-4.16,4.08-15.28,15.7-15.42,16.55-6.22,35.9,1,2,1.79,4.06,2.93,6,2,3.39,1.44,6.38.31,10.12-3,9.7-12,8.72-18.69,11.4-13.76,5.53-15.56,7.42-16.35,22.37-.14,2.49-.15,5-.15,7.49,0,22.79.68,24.88,22.46,31.1,12.47,3.56,16.71,13.1,10.36,24.86C695.2,683,696,684,712.28,700.58l1.18,1.18c15.28,15,16.92,15.34,36,6.23,2.5-1.2,5-2.44,7.53-3.49,5.39-2.21,13.51,1,15.68,6.33,1.36,3.33,2.48,6.75,3.68,10.14,6.1,17.15,7.73,18.36,25.46,18.88,27.89.81,28.54.75,37.31-25.51,2.37-7.08,7-9.71,12.88-10.87,4.39-.87,8.15,2.88,12.12,4.71,19.1,8.79,20.14,8.66,35.25-6.1,1.19-1.16,2.39-2.32,3.54-3.53,13.82-14.49,14-15.73,5.35-34-1-2-2-4-2.92-6-3.85-8.25-.71-15.49,7.87-18.78,9.58-3.68,20.4-5.23,26.71-14.84V591.66C937.57,583.42,931.64,579.23,923.77,577.13Zm-14.7,36a5.93,5.93,0,0,1-.81.19C887,615,881.66,631.9,875.42,647.84c-1.58,4-.86,8.13,1.08,12,2.45,5,4.44,10.17,7.18,15,1.92,3.33.36,5-1.75,7s-3.74,4.21-7,1.82c-14.66-10.8-29.25-9.36-44.71-1-5.72,3.1-10.39,5.75-12.29,12.2-1.4,4.76-3.46,9.34-4.86,14.1-1.07,3.64-3.24,4.44-6.75,4.4-3.22,0-5.53-.82-6-4.11-2.62-17.71-13.52-27-30.13-31.93-6.81-2-12.53-3.43-18.92.17-3.84,2.17-8,3.67-11.92,5.79-3.1,1.71-5.22,1.53-7.93-1.11-2.93-2.84-3.12-5-1.43-8.61,3.27-6.93,7.93-13.36,8.76-22.26-2.7-6.72-6.37-13.92-8.48-21.56-2.64-9.57-10.51-11.27-18-14-3.12-1.15-6.2-2.41-9.39-3.29-3.35-.94-2.92-3.42-3-5.9s-.17-5.05,3.09-5.83a16.29,16.29,0,0,1,2.36-.78c21.24-2,26.49-19.16,32.39-35,3.47-9.3-3.79-16.85-7.61-24.58-2.45-4.95-.86-7.58,2.61-10.48,1.4-1.17,2.65-1.93,4.41-.91a17.12,17.12,0,0,1,2.23,1.1c16.28,13.28,32,5.95,47.7-1.3,4.11-1.89,6.31-5.23,7.73-9.28,1.84-5.21,3.79-10.39,5.42-15.67,1-3.3,3.07-4,6.21-3.91,3,.07,5.68.15,6.25,3.73,2.83,17.88,13.63,27.51,30.73,32.4,6.57,1.87,12,3.1,18.14-.1,3.91-2.06,8.06-3.68,11.89-5.86,3.42-2,5.76-1.72,8.61,1.31,2.55,2.71,3.19,4.89,1.12,7.88-.15.23-.16.56-.33.76-13.5,16.44-5.06,32,1.84,47.69,1.69,3.84,5,5.76,8.79,7.09,5.21,1.85,10.39,3.78,15.69,5.35,3.79,1.12,4,3.65,4.13,6.95S912.18,612.32,909.07,613.1Z"/><path class="cls-1" d="M672.06,651.84c-.79-6.6-4.46-10.53-10.88-12-9.46-2.12-18.84-5.22-28.41-6.08-13-1.16-20.23-6.2-21.85-20-.67-5.69-.38-9,3.94-12.69,9.5-8.1,18.57-16.7,27.88-25,5.92-5.3,7.38-11.37,3.78-18.63a309.66,309.66,0,0,0-19.36-33.85c-4.54-6.84-10.44-8.62-17.95-6.25-8.44,2.67-17.42,4.33-25.18,8.33-13.31,6.87-22.95,4.13-31.59-7.57-2.43-3.3-3.48-5.6-2.2-9.42,4.15-12.32,7.91-24.78,12.11-37.09,2.83-8.3.82-14.51-6.57-19.28a320.45,320.45,0,0,0-33.21-18.85c-7.24-3.53-13.3-2.27-18.61,3.75-5.88,6.66-12.86,12.56-17.65,19.91-8,12.24-17.5,14.66-30.59,9.21-4.09-1.71-6.22-3.43-7.08-7.64-2.64-13-5.62-26-8.3-39-1.48-7.18-5.59-11.16-12.93-11.88a211.51,211.51,0,0,0-41.57,0c-6.93.68-11.13,4.33-12.62,11.16-2,9.2-5.2,18.3-5.9,27.59-1.05,13.82-6.75,21.34-21.09,22.71-4.62.44-7.56.62-10.74-3.06-8.52-9.87-17.46-19.38-26.14-29.11-5.36-6-11.46-7.16-18.65-3.6a334.18,334.18,0,0,0-33.17,18.9c-7.49,4.85-9.23,11.08-6.43,19.3C255.2,483.79,258.81,496,263,508c1.57,4.52,0,7-2.67,10.77-8.6,12-18.61,13.61-30.94,6.65a28.43,28.43,0,0,0-5.5-1.84l-23.14-7.15c-8-.23-11.54,2.84-14.52,7.26a282.67,282.67,0,0,0-19.34,33.87c-3.36,6.86-2.39,12.8,3.36,18,6.82,6.12,13,13.15,20.47,18.28,11.43,7.83,14.87,16.8,9.29,29.85-2,4.61-4,7-8.83,7.92-12.78,2.47-25.45,5.47-38.19,8.1-7.23,1.5-11,5.74-11.74,13a191.12,191.12,0,0,0,.07,41.55c.77,6.94,4.48,11,11.3,12.51,8.94,1.93,17.79,5.29,26.78,5.66,15,.63,21.95,7.87,23.65,22.2.48,4,.32,6.58-2.87,9.34-9.85,8.55-19.3,17.55-29.11,26.15-6.65,5.83-7.66,12.28-3.68,20a362.3,362.3,0,0,0,18.6,32.4c4.64,7.12,10.66,9.11,18.57,6.51,8.42-2.76,17.26-4.57,25.22-8.28,12.27-5.71,21.9-5.3,30.33,6.69,2.82,4,4.49,6.62,2.76,11.48C258.59,851,255,863.2,251,875.28c-2.6,7.86-.94,13.88,6.28,18.6a349.44,349.44,0,0,0,33.1,19c7.48,3.79,13.81,2.52,19.34-3.79,5.85-6.68,12.58-12.71,17.69-19.9,7.62-10.73,16-15.09,29.07-9.39,4.87,2.13,7.55,4,8.55,9.2,2.4,12.51,5.45,24.89,8,37.38,1.51,7.56,5.69,11.62,13.39,12.41a197.92,197.92,0,0,0,40.72,0c7.26-.75,11.66-4.36,13.19-11.6,1.94-9.22,5.2-18.31,5.88-27.6,1-13.57,6.65-20.69,20.6-22.21,4.95-.54,8.06-.71,11.44,3.2,8.52,9.87,17.44,19.39,26.16,29.1,5.13,5.71,11,6.86,17.94,3.51a299.17,299.17,0,0,0,33.9-19.29c7.14-4.71,8.88-10.79,6.27-18.66-2.8-8.4-4.49-17.3-8.3-25.2-6-12.46-4.64-21.83,6.93-30.3,4.11-3,6.81-4.14,11.55-2.47,12,4.23,24.2,7.89,36.3,11.85,7.92,2.58,13.93.54,18.56-6.57a331.19,331.19,0,0,0,18.93-33.16c3.56-7.16,2.53-13.33-3.48-18.69-6.83-6.1-13.12-12.93-20.49-18.27-10.28-7.46-15.06-15.46-9.3-28.32,2.21-4.94,3.93-8.1,9.56-9.15,12.79-2.4,25.46-5.44,38.19-8.19,6.82-1.47,10.5-5.65,11.25-12.58A185.3,185.3,0,0,0,672.06,651.84Zm-37.48,33.39c-10,2.18-20,4.58-30.05,6.43-8.46,1.56-13.26,6-14.51,14.66a144.78,144.78,0,0,1-8.39,31.22c-2.78,7.22-1.06,12.84,4.58,17.84,9.55,8.47,18.59,17.55,28.52,25.55,6.48,5.22,1.25,8.69-.7,12.53s-3,8.95-9.95,6.37c-11.92-4.42-24.24-7.72-36.24-11.94-7.27-2.55-12.93-1.12-17.76,4.74A175.85,175.85,0,0,1,526,816.72c-5.88,4.8-7.2,10.55-4.64,17.8,4.13,11.74,7.56,23.72,11.59,35.49,1.45,4.23,1.26,6.71-3.16,9.23-11.16,6.35-11,6.62-19.8-3.11-7.07-7.82-14.23-15.57-21.23-23.46-5-5.64-10.7-7.22-17.89-4.44a152.72,152.72,0,0,1-32,8.53c-7.9,1.2-12.05,6-13.59,13.62-2.45,12.22-5.38,24.35-7.67,36.59-.86,4.59-2.44,6.35-7.44,6.32-12.66-.07-12.64.23-15.24-11.95-2.19-10.29-4.58-20.55-6.63-30.87-1.52-7.66-5.61-12.49-13.52-13.69a154.59,154.59,0,0,1-32-8.54c-7.59-2.91-13.3-.94-18.47,5-8.22,9.4-17.18,18.18-25,27.91-5.55,6.93-9,.91-13.22-.84-4.4-1.85-8.11-3.72-5.64-10.25,4.4-11.63,7.57-23.72,11.7-35.45,2.54-7.23,1.29-13-4.56-17.85a190.56,190.56,0,0,1-24.67-24.69c-4.41-5.26-9.81-6.67-16.4-4.46-12.33,4.14-24.76,8-37.08,12.11-4,1.33-6.21.78-8.51-3.23-6.49-11.25-6.74-11.11,2.89-19.83,7.62-6.89,15.12-13.91,22.87-20.64,6.19-5.37,8.14-11.4,5-19.25a140.94,140.94,0,0,1-8.34-31.23c-1.2-7.87-5.8-12.15-13.51-13.71-12.48-2.53-24.86-5.59-37.39-7.85-4.63-.84-5.58-2.81-5.65-7.08-.21-12.86-.38-12.81,12.52-15.52,10.29-2.16,20.55-4.52,30.85-6.66,7.33-1.53,11.92-5.69,13.06-13.18a162.52,162.52,0,0,1,8.73-32.86c2.61-6.93.93-12.4-4.36-17.17-9.28-8.36-18.36-17-27.88-25-4.09-3.47-4.8-6.09-1.88-10.9,6.2-10.26,5.88-10.46,17.45-6.73,10,3.23,20.1,6.2,30,9.77,7.57,2.74,13.46,1.16,18.46-5a168,168,0,0,1,23.51-23.51c5.78-4.77,7.6-10.35,5-17.7-4.12-11.74-7.56-23.72-11.58-35.5-1.52-4.48-1.24-7.22,3.43-9.83,10.8-6,10.64-6.31,19.16,3.09,7.28,8,14.58,16,21.82,24.05,4.8,5.33,10.3,6.81,17.2,4.23a164.69,164.69,0,0,1,32.86-8.73c7.93-1.22,11.7-6.4,13.22-14,2.48-12.49,5.54-24.87,7.91-37.38.73-3.83,2.22-4.81,5.91-5,13.69-.69,13.68-.84,16.51,12.33,2.22,10.28,4.53,20.55,6.64,30.86,1.5,7.32,5.55,12,13.06,13.18a159.48,159.48,0,0,1,32.85,8.72c7.31,2.81,12.85.74,17.79-4.81,8.11-9.12,16.58-17.95,24.47-27.26,3.4-4,5.92-5.08,10.85-2.1,10.42,6.29,10.61,6,6.93,17.37-3.31,10.27-6.4,20.62-10,30.79-2.45,6.92-1.15,12.52,4.4,17.12a189.38,189.38,0,0,1,24.69,24.68c3,3.56,6.51,6,13.58,5.61,7.73-2.4,17.49-5.42,27.23-8.5a54.05,54.05,0,0,0,7.81-2.78c7.82-3.9,12.62-2.2,16.46,6.19,2.52,5.49,2.49,8.33-2.23,12.25-9.39,7.78-18.15,16.33-27.25,24.48-5.33,4.77-7,10.15-4.43,17.12a164,164,0,0,1,8.74,32.85c1.2,7.92,6.18,11.87,13.83,13.39,12.22,2.42,24.32,5.47,36.58,7.67,4.94.88,6.05,3,6.06,7.63C646.75,682.54,647,682.54,634.58,685.23Z"/><path class="cls-1" d="M687,233.45c-36.67-.17-66.85,29.66-67,66.24s29.68,66.86,66.25,67,66.86-29.68,67-66.26S723.61,233.61,687,233.45Zm-.21,106.61a40,40,0,1,1,39.81-39.74A40.15,40.15,0,0,1,686.79,340.06Z"/><path class="cls-1" d="M806.63,553.34c-29.08,0-53.07,23.65-53.35,52.63-.29,29.45,23.52,53.79,52.83,54a53.31,53.31,0,1,0,.52-106.62Zm-.19,80a26.66,26.66,0,1,1,26.8-26.11A26.91,26.91,0,0,1,806.44,633.31Z"/><path class="cls-1" d="M407.25,526.68c-80.92-.18-147,65.39-147.15,146.07-.18,80.89,65.4,147,146.06,147.17,80.88.19,147-65.42,147.17-146.09C553.52,592.94,487.92,526.86,407.25,526.68Zm-1.18,266.58c-65.64-.19-119.32-54.17-119.31-120,0-66.18,53.93-120,120.16-119.94s119.89,54.11,119.75,120.37C526.53,739.76,472.37,793.45,406.07,793.26Z"/></svg>