<svg id="Layer_1" data-name="Layer 1" xmlns="http://www.w3.org/2000/svg" viewBox="0 0 1080 1080"><defs><style>.cls-1{fill:#002644;}</style></defs><title>Assets</title><path class="cls-1" d="M654.08,684.7H436.85c-6.25,0-6.12,0-4.15,6,3.64,11.24,7.61,22.22,17.29,30,8.31,6.71,17.7,10.49,28.38,10.5q122.61.06,245.23,0H874.21a25.76,25.76,0,0,1,4.81.32,12.58,12.58,0,0,1-1.21,24.9c-1.91.17-3.86.09-5.79.09q-187.54,0-375.09,0c-10.91,0-21.92,1-32.71-1.53-25.64-6-43.35-21.47-52-46.25Q353.88,541.46,296,373.94c-6.44-18.57-17.4-26.41-37.27-26.41q-57.19,0-114.4,0c-7.9,0-13.3-4.43-14-11.14-.81-7.89,4.88-14,13.44-14.1,18.5-.13,37-.11,55.51-.11q30.16,0,60.34.06c29.3,0,50,14.58,59.74,42,1.95,5.45,4,10.87,5.63,16.42,1,3.39,2.68,4.46,6.19,4.44,25.91-.14,51.81-.08,77.72-.07,2.09,0,4.19-.08,6.27.1a12.6,12.6,0,0,1-.21,25.15c-.8.06-1.61.06-2.42.06-24,0-47.94.2-71.92,0-4.51,0-5.11,1-3.69,5q21.92,62.58,43.62,125.23c13.14,37.8,26.34,75.58,39.3,113.45,1.39,4,3.15,5.43,7.45,5.41q72.4-.24,144.82-.13,142.41,0,284.81.14c4.95,0,6.77-1.44,7.9-6.34C878.4,594.22,892.23,535.38,906,476.52c4.79-20.5,9.47-41,14.39-61.52.91-3.81-.09-4.73-3.83-4.69-16.09.15-32.18.09-48.28,0-9,0-14.59-4.78-14.7-12.41s5.78-12.88,14.83-12.89q33.07,0,66.14,0c12.19,0,17.23,6.65,14.47,18.46q-17.94,76.79-35.79,153.59-13.49,57.76-27.09,115.5c-2.1,8.92-6.15,12.07-15.27,12.07Z"/><path class="cls-1" d="M837.94,407.43C826.13,400,826.17,388,838,380.55c15.63-9.82,22.66-27.28,18-44.59s-19.17-29.39-37.43-29.29c-13,.08-21.1-12.59-13.86-24.08,5.73-9.09,6.59-19.46,3.45-29.8-7.61-25-34-36.39-57.19-24-13.1,7-25.19-2-24.15-14.35.54-6.36-1.69-12.39-4.8-17.95-15-26.76-52.7-27.13-69.37-.7-7.08,11.22-19.55,11.32-26.39.22-9.52-15.44-26.73-23-42.87-19-19.29,4.88-30.7,18.66-31.6,38.16-.66,14.26-10.91,20.08-23.63,13.43a39.51,39.51,0,0,0-19-4.94c-14.38.34-25.78,6.41-33.6,18.45-8.67,13.33-8.72,27.16-1.24,41.14,4.22,7.89,3.25,14.42-2.65,19.59-3.38,3-7.45,3.59-11.7,3.62a36.57,36.57,0,0,0-21.26,6.84c-24,17.07-22.84,51.33,2.24,67.29,11.48,7.3,11.57,19.5.13,26.68a40.23,40.23,0,0,0-12.38,11.3c-8.86,13.14-9.83,27.06-2.8,41.15S445,481,460.85,481.56c13.36.45,19.87,11.48,13.54,23.07-8.78,16.06-6.49,34.52,5.85,47.25,12.85,13.26,31.64,16.81,47.68,7.33,10.35-6.13,24.8-.37,24,14a32.14,32.14,0,0,0,3.81,16.29c7,13.85,18.53,21.18,33.76,22.25,15.69,1.11,27.69-5.74,36.17-18.8,2.23-3.43,4.51-6.65,8.54-8.14,7.46-2.77,13.78,0,19.22,8.48,9.73,15.13,27,21.8,44,17.3A39.83,39.83,0,0,0,726.94,573c.28-13.88,11-20.24,23.15-13.88,16.74,8.74,34.89,6.32,47.61-6.34,13.23-13.18,15.7-31.19,6.64-48.32-6.15-11.63.18-22.44,13.36-22.84C836.6,481,851.13,469.76,856,452,860.68,434.64,853.67,417.33,837.94,407.43Zm-6.49,38c-1.87,7-7,10.74-15.08,11-31.31.88-49.19,31.75-34.48,59.71,3.06,5.81,3.65,11.28-.43,16.7-3.44,4.58-8,6.82-13.84,6a19.06,19.06,0,0,1-6.24-2.46c-27.69-14.64-58.87,3.53-59.66,34.77-.2,7.85-3.81,12.9-10.6,14.83q-10.49,3-17.13-7.4c-13.08-20.39-37.85-26.17-56.94-13.26a42.33,42.33,0,0,0-12.11,12.92c-4.5,7.2-10,9.69-16.9,7.85S577.42,579.28,577.1,571c-1.24-31.44-32-49.18-59.81-34.55-7.43,3.9-13.32,3.28-18.51-1.94S493,523.68,497,516c14.57-28.07-3.26-58.74-34.65-59.62-8-.22-13.12-4-15.07-11.06-1.82-6.57.86-12.54,7.5-16.65,13.18-8.17,20-20,20-38.1-.3-11.73-7-23.26-19.94-31.2-8-4.9-10.28-12.47-6.16-20.14,3-5.6,7.93-7.4,14-7.59,18.28-.55,32.67-11.33,37.85-28.3,3.43-11.22,1.72-21.86-3.87-32.11-4.88-8.94-.91-18.66,8.5-21.67,4.94-1.58,9.07.42,13.29,2.61A39.91,39.91,0,0,0,571.74,237a41.14,41.14,0,0,0,5.36-19.8c.28-8.45,4.09-13.6,11.24-15.37,6.61-1.63,12.31,1.07,16.55,7.83,16.83,26.84,52.46,26.61,69.26-.44,4.08-6.56,10.1-9.16,16.76-7.25,6.87,2,10.55,7,10.8,14.74,1,31.73,31.53,49.46,59.87,34.82,7.48-3.86,13.46-3.2,18.52,2s5.57,11,1.87,18.14c-14.75,28.38,2.83,58.77,34.71,60,7.93.3,12.88,3.91,14.74,10.72S831,355,824.3,359.2c-27.26,17.4-27.34,52.1-.16,69.56C831,433.17,833.31,438.44,831.45,445.42Z"/><path class="cls-1" d="M779.9,771.31a66.35,66.35,0,1,0,66,67.07A66.48,66.48,0,0,0,779.9,771.31Zm-.82,107.41A41,41,0,1,1,820.56,838,41.13,41.13,0,0,1,779.08,878.72Z"/><path class="cls-1" d="M530.61,771.3A66.36,66.36,0,1,0,530.4,904c36.51,0,66.43-29.86,66.35-66.23C596.66,801.14,567.05,771.37,530.61,771.3Zm-.08,107.42a41,41,0,1,1,40.88-41.31A41.11,41.11,0,0,1,530.53,878.72Z"/><path class="cls-1" d="M638.93,257.2c-77.39.21-140,63-139.88,140.15.17,77.32,62.88,140,140.12,139.95a140.17,140.17,0,0,0,140.1-140.43C779.08,319.6,716.17,257,638.93,257.2Zm.33,254.87c-63.22,0-114.93-51.67-114.92-114.88s51.63-114.75,115-114.75c63.18,0,114.87,51.85,114.68,115S702.23,512,639.26,512.07Z"/></svg>