<svg id="Layer_1" data-name="Layer 1" xmlns="http://www.w3.org/2000/svg" viewBox="0 0 1080 1080"><defs><style>.cls-1{fill:#002644;stroke:#002644;stroke-miterlimit:10;}</style></defs><title>Assets</title><path class="cls-1" d="M891.49,490.08a22,22,0,0,0-2.41-8.33q-13-22.46-26-44.95c-6-10.39-17-13.77-27.76-8.42-12.08,6-24.16,12-36.19,18.13a4.82,4.82,0,0,1-6-.72,139.12,139.12,0,0,0-25.8-17.16,146.32,146.32,0,0,0-18-8.13c-1.49-.53-2.9-1.19-3-3.11,0-2.15-.35-4.29-.45-6.44-.22-4.67-.46-9.35-.8-14-.51-7-1-14-1.31-21-.5-11.69-9.1-20.26-20.82-20.28H711.71c-4.44,0-4.57-.13-4.57-4.55V244.65c0-1.11,0-2.22,0-3.33a11,11,0,0,0-10.86-10.74c-11.14.32-22.3.1-33.45.09-3.33,0-3.75-.41-3.75-3.71,0-10.35,0-20.7,0-31.05,0-6.3-2.62-9.55-8.67-10.91H196.27c-2,.46-4.07.59-5.71,2.31s-1.56,3.57-2.05,5.45V841c.41,2.7,1.2,5.13,3.76,6.68a10.76,10.76,0,0,0,5.75,1.65q15.72,0,31.42,0c.74,0,1.48,0,2.22,0a2.4,2.4,0,0,1,2.48,2.44c.06.74,0,1.48,0,2.22q0,15.62,0,31.23a11.32,11.32,0,0,0,.72,4.34c1.4,3.44,4.09,5,7.6,5.4h456c2.08-.48,4.21-.66,5.81-2.48a12.19,12.19,0,0,0,2.86-8.54q0-28.74,0-57.49,0-26.25,0-52.5c0-3,.47-3.42,3.45-3.43,4.5,0,9-.13,13.49,0,9.92.35,19.11-8.68,19.65-19.05.25-4.73.52-9.46.85-14.18.65-9.08,1-18.18,1.69-27.26.17-2.24,1-3.49,3.07-4.21a112.3,112.3,0,0,0,13.93-5.94,153.66,153.66,0,0,0,30.62-19.88,3.63,3.63,0,0,1,4.41-.54c12.28,6.16,24.66,12.13,36.83,18.5,9.89,5.19,21.73,2.21,27.38-7.42C870,677.79,877.4,664.92,884.77,652c2.86-5,6.7-9.64,6.72-15.87V630.6c-.39-3.11-.77-6.23-2.81-8.8a26.84,26.84,0,0,0-6-5.71c-11.35-7.64-22.84-15-34.2-22.65-1.66-1.1-2.47-2.26-2.1-4.41a115.5,115.5,0,0,0,1.93-16.67c.3-10.9.3-21.8-1.51-32.6-.9-5.38-1.46-4.78,3.79-8.21,10.93-7.15,21.88-14.26,32.67-21.61,4.43-3,7.71-7,8-12.71,0-.53-.17-1.11.19-1.61ZM238.63,325a10.26,10.26,0,0,0-3.69,8.46q0,233.33,0,466.65c0,8.94-.05,17.87,0,26.81,0,1.82-.53,2.23-2.28,2.21q-11.28-.15-22.55,0c-1.82,0-2.23-.52-2.22-2.27q.06-82.36,0-164.73V516.66q0-154.75,0-309.5c0-3-.37-2.68,2.62-2.68H636c2.83,0,2.48-.24,2.48,2.46,0,7.58,0,15.16,0,22.74,0,1.36-.34,2-1.75,1.77a13.11,13.11,0,0,0-1.66,0q-140.32,0-280.66-.05a14,14,0,0,0-9.7,3.61q-47.43,40.38-95,80.61Q244.21,320.33,238.63,325Zm104.31-4.19c0,1.63-.34,2.18-2.1,2.17q-33.63-.09-67.26,0H272l-.21-.44,70.79-60a2.64,2.64,0,0,1,.37,2C342.91,283.28,342.89,302.07,342.94,320.85Zm343.75,553c0,1.28-.36,1.81-1.66,1.66a16.14,16.14,0,0,0-1.84,0H470.57q-107,0-213.92.05c-1.94,0-2.32-.56-2.3-2.38.09-9.06.05-18.12,0-27.18a7.29,7.29,0,0,1,.65-3.2,9.24,9.24,0,0,0-.06-8.05,6.54,6.54,0,0,1-.59-2.85q0-243.58,0-487.17c0-2,.65-2.27,2.4-2.27,31.43,0,62.86-.06,94.29.12,6.29,0,11.54-3.81,11.47-11.53-.26-26-.08-52-.14-78,0-1.81.51-2.22,2.26-2.22q140.42.07,280.84,0c13.07,0,26.13,0,39.2,0,1.64,0,2,.44,2,2.06q-.08,50.85,0,101.69c0,1.56-.31,2.12-2,2.08-5.11-.12-10.23-.05-15.34,0A19.3,19.3,0,0,0,650,374.77q-1.39,21.68-2.58,43.37a2.6,2.6,0,0,1-2.06,2.71,149.13,149.13,0,0,0-46.78,27,2.59,2.59,0,0,1-3.37.38c-12.59-6.36-25.27-12.56-37.83-19-9.72-5-21.32-2.14-27,8.07-8.54,15.34-17.5,30.45-26.28,45.66a19.32,19.32,0,0,0,6.18,26.34q18.06,12,36.24,23.94a2.09,2.09,0,0,1,1.11,2.52,153,153,0,0,0,0,54.78,2.09,2.09,0,0,1-1.08,2.53q-18,11.8-36,23.72a19.47,19.47,0,0,0-9.29,16.9,18.42,18.42,0,0,0,2.68,9.49q13.37,23.12,26.73,46.25c5.56,9.59,16.16,12.81,26.13,7.88q19.29-9.54,38.51-19.26a2.45,2.45,0,0,1,3.21.42,149.52,149.52,0,0,0,46.78,27.05,2.7,2.7,0,0,1,2.09,2.88q1.18,21.6,2.57,43.18a19.25,19.25,0,0,0,19.48,18.14c5.11,0,10.23,0,15.34,0,1.27,0,1.85.2,1.85,1.69Q686.63,822.68,686.69,873.88ZM870.51,494q-20.71,13.58-41.35,27.27c-4.23,2.8-5.69,6.5-4.53,11.48a132.52,132.52,0,0,1,0,60.82c-1.2,5.15.28,8.81,4.72,11.75q20.45,13.5,40.91,26.95c1.44,1,1.45,1.6.65,3q-12.6,21.65-25.05,43.37c-.73,1.29-1.31,1.35-2.54.73q-22.05-11.08-44.13-22.09c-4.68-2.34-8.53-1.81-12.36,1.77A132.79,132.79,0,0,1,734,689.53c-4.89,1.48-7.26,4.58-7.57,9.72-1,16.3-2,32.6-2.9,48.9-.1,1.7-.52,2.26-2.33,2.25q-24.87-.12-49.74,0c-1.7,0-2.13-.51-2.23-2.15-.93-16.54-2-33.09-2.94-49.63-.27-4.44-2.91-7.7-7.45-9.06a132.64,132.64,0,0,1-52.7-30.33c-4.08-3.83-7.8-4.36-12.83-1.85q-21.9,10.95-43.78,21.93c-1.29.64-1.9.62-2.69-.75q-12.52-21.9-25.23-43.7c-.74-1.26-.4-1.71.66-2.41q20.61-13.55,41.19-27.18c4.42-2.92,5.86-6.55,4.65-11.76a132.21,132.21,0,0,1,0-60.46c1.26-5.41-.16-8.94-4.82-12q-20.52-13.54-41-27.06c-1.13-.75-1.26-1.25-.57-2.43q12.68-21.81,25.28-43.67c.28-.5.39-1.2,1.15-1.38.43.21.88.41,1.31.63q21.83,10.89,43.65,21.8c5.33,2.66,8.91,2.17,13.28-1.88a132.66,132.66,0,0,1,52.59-30.18c4.63-1.4,7.13-4.64,7.41-9.46,1-16.55,2-33.09,2.95-49.64.08-1.25.43-1.67,1.73-1.67q25.32.06,50.66,0c1.38,0,1.76.42,1.83,1.75.86,15,1.78,30,2.68,45,.09,1.48.19,2.95.28,4.43.3,5,2.71,8.14,7.49,9.58a133,133,0,0,1,37.47,18.05,137.33,137.33,0,0,1,15.5,12.55c3.68,3.45,7.71,4,12.23,1.76q22-11,44-22c1.43-.73,2.08-.64,2.93.84q12.44,21.75,25,43.38C871.76,492.62,871.75,493.2,870.51,494Z"/><path class="cls-1" d="M524.51,280.48H641.15c7.52,0,12.33,7.22,9.21,13.84a9.5,9.5,0,0,1-8.3,5.61c-.55.05-1.11,0-1.67,0H409.15a17.48,17.48,0,0,1-3.68-.24A9.73,9.73,0,0,1,407,280.49c.67,0,1.35,0,2,0Z"/><path class="cls-1" d="M482.82,340.15q-37.33,0-74.67,0c-6.14,0-10.56-4.34-10.34-10.08a9.72,9.72,0,0,1,9.39-9.37H557.64c5.28,0,9.17,2.91,10.21,7.59,1.37,6.22-3.23,11.83-9.81,11.85-9.49,0-19,0-28.46,0Z"/><path class="cls-1" d="M527.77,836.1a14.63,14.63,0,0,0-3.49-.26c-10.11,0-20.22,0-30.32,0-1.69,0-2.24-.51-2-2.09a4.45,4.45,0,0,0,0-.73V590.11c0-7.26-3.8-11.09-11-11.09H438.6c-3.19,0-2.69.25-2.7-2.61q0-25,0-50.11c0-6.39-4-10.4-10.37-10.4H371.17c-6.9,0-10.72,3.86-10.72,10.78q0,62.6,0,125.17a11.28,11.28,0,0,0,0,1.3c.14,1.17-.27,1.66-1.52,1.59-1.72-.09-3.45,0-5.18,0q-19.41,0-38.83,0c-4.84,0-8.38,2.29-9.9,6.31a13.69,13.69,0,0,0-.67,4.92q0,83.85,0,167.69c0,1.8-.47,2.25-2.25,2.23-10.29-.09-20.58,0-30.87,0a10.05,10.05,0,0,0-7,2.43A9.66,9.66,0,0,0,261.62,849c1.5,3.94,5,6.26,9.55,6.26H524.46c.56,0,1.11,0,1.67,0a9.72,9.72,0,0,0,1.64-19.19Zm-167.32-2.26c0,1.7-.55,2-2.1,2q-16.28-.11-32.53,0c-1.7,0-2-.53-2-2.09q.06-39.46,0-78.92,0-39.18,0-78.37c0-1.71.33-2.29,2.18-2.28,10.78.1,21.56.08,32.35,0,1.51,0,2.11.24,2.11,2Q360.38,755,360.45,833.84Zm56-148.13h0V833.24c0,2.93.29,2.55-2.56,2.56H382.38c-2.43,0-2.43,0-2.43-2.34q0-82.92,0-165.84,0-64.89-.06-129.78c0-2.53,0-2.53,2.45-2.53,10.66,0,21.32,0,32,0,1.73,0,2.14.49,2.14,2.16Q416.39,611.56,416.42,685.71Zm54.25,150.12c-10.85-.05-21.7-.07-32.54,0-1.79,0-2.25-.44-2.25-2.23q.09-58.33.05-116.67V600.83c0-2.37,0-2.37,2.39-2.37,10.78,0,21.57,0,32.35,0,1.46,0,1.86.39,1.86,1.85q0,116.85,0,233.71C472.53,835.47,472.1,835.84,470.67,835.83Z"/><path class="cls-1" d="M696.52,459.54a103.84,103.84,0,0,0-103.8,103.75c0,57.09,46.59,103.62,103.76,103.58A103.76,103.76,0,0,0,800.08,563C800.1,506.15,753.4,459.51,696.52,459.54Zm.09,187.87c-45.29.51-83.91-37.23-84.36-82.42-.47-47.6,36.53-85.5,84-86,46-.47,84,37.32,84.41,83.91C781,609.08,743.43,646.89,696.61,647.41Z"/></svg>