<svg id="Layer_1" data-name="Layer 1" xmlns="http://www.w3.org/2000/svg" viewBox="0 0 1080 1080"><defs><style>.cls-1{fill:#002644;stroke:#002644;stroke-miterlimit:10;stroke-width:7px;}</style></defs><title>Assets</title><path class="cls-1" d="M815.79,892.28c-17.2-13.21-27.66-29.35-32-49.39a90,90,0,0,1-1.6-19.11q0-237.79.14-475.58c0-5.22-1.55-6.13-6.35-6.12-68.28.16-136.56.06-204.84.23-4.5,0-5.49-1.27-5.35-5.5.31-9.55.09-9.56,9.82-9.56q108.2,0,216.38-.09c4,0,5.27.7,5.27,5.1q-.22,182-.23,364c0,4.76,1,6.25,6,6.09,12.81-.42,25.64,0,38.46-.23,3.23,0,4,1,4,4,0,11,.16,11-10.83,11-11.22,0-22.44.08-33.66-.07-2.87,0-3.86.69-3.86,3.72.1,35.58-.37,71.17.2,106.75.54,34.17,27.25,62.37,59.9,64.51,35.84,2.34,65.46-21,71.06-56.13a65.05,65.05,0,0,0,.55-10.07c0-34.62-.05-69.25.12-103.87,0-4-1.06-5-5-5-13,.27-26,0-38.95.19-3,0-3.67-.82-3.67-3.73,0-11.29-.12-11.29,11-11.29,15.86,0,31.73.1,47.6-.09,3.37,0,4.22.88,4.21,4.22-.12,40.4.08,80.79-.13,121.18-.19,37.92-27.09,70.19-64.29,78.29a76.49,76.49,0,0,1-16.52,1.62q-143.29,0-286.59.12c-4.33,0-5.25-1.15-5.13-5.25.29-10,.08-10,10-10h234.4Z"/><path class="cls-1" d="M652.57,777.67q-52.83-31.8-105.64-63.59a9.12,9.12,0,0,0-5-1.12c-22-.1-43.92-.11-65.88-.33-41.95-.43-83.91.13-125.85-1.11-2.72-.09-3.49-.76-3.49-3.49q.12-62.76,0-125.51c0-2.86.93-3.5,3.56-3.38,4.48.2,9-.25,13.46.15,3.68.34,4.66-1.18,4.92-4.46.76-9.58,1.87-19.13,2.55-28.72.23-3.14,1.58-4.19,4.46-4.8a160.79,160.79,0,0,0,55.43-23.12c2.29-1.5,3.68-1.42,5.75.36,7.67,6.57,15.6,12.82,23.26,19.39,2.06,1.77,3.1,1.55,4.91-.3,11.93-12.1,23.91-24.15,36.06-36,2.24-2.19,1.71-3.31,0-5.31-6.43-7.57-12.64-15.33-19-22.93-1.47-1.75-2.18-3-.66-5.34A163.46,163.46,0,0,0,505,411.23c.49-2.27,1.26-3.14,3.61-3.33,9.9-.81,19.77-1.84,29.66-2.76,2.52-.24,4.44-.36,4.39-4-.22-17-.14-34-.06-51,0-2.39-.64-3.31-3.19-3.51-9.9-.78-19.77-2-29.68-2.67-3.16-.22-4.31-1.29-4.94-4.26a162.19,162.19,0,0,0-23.3-55.91c-1.42-2.16-1.23-3.48.38-5.37,6.53-7.69,12.83-15.58,19.38-23.26,1.65-1.95,1.88-3-.1-5q-18.34-18-36.39-36.39c-1.79-1.81-2.82-1.62-4.59-.11-7.58,6.42-15.41,12.55-22.87,19.1-2.57,2.26-4.2,2-6.88.29a161.54,161.54,0,0,0-55.05-22.8c-2.91-.62-3.94-1.67-4.17-4.54-.76-9.75-1.8-19.46-2.65-29.2-.24-2.66-.74-4.13-4.17-4.08-16.83.24-33.66.15-50.49.06-2.5,0-3.61.4-3.82,3.29-.74,10.06-1.91,20.09-2.76,30.15-.2,2.37-.7,3.63-3.38,4.18a162.45,162.45,0,0,0-56.8,23.54c-2.2,1.44-3.43,1.12-5.27-.44-7.82-6.63-15.82-13-23.64-19.68-1.68-1.43-2.6-1.6-4.26.08q-18.26,18.47-36.74,36.71c-1.82,1.81-1.61,2.84-.08,4.64,6.64,7.82,13.06,15.82,19.67,23.66,1.45,1.71,1.73,2.87.4,4.9a163.82,163.82,0,0,0-23.73,57.27c-.43,2.07-1.24,2.85-3.43,3-10.06.82-20.08,2-30.15,2.73-3.1.22-4,1.15-3.94,4.24.15,16.51.21,33,0,49.53-.05,3.63,1.15,4.6,4.47,4.86,9.74.75,19.46,1.84,29.19,2.66,2.42.2,3.51,1,4,3.55a161.83,161.83,0,0,0,23.11,56c1.55,2.39,1.67,3.86-.27,6.11-6.59,7.65-12.85,15.58-19.39,23.26-1.61,1.89-1.48,2.91.23,4.6q18.3,18.09,36.36,36.41c2.05,2.09,3.12,1.54,5,0,7.7-6.53,15.59-12.83,23.27-19.37,1.93-1.64,3.25-1.7,5.36-.31a164.28,164.28,0,0,0,56.34,23.44c2.75.59,3.53,1.6,3.73,4.3.77,10.06,1.93,20.09,2.76,30.15.2,2.43.93,3.37,3.45,3.27,4.64-.18,9.31.18,13.94-.13,3.41-.24,4.23.84,4.22,4.2q-.18,62,0,124.08c0,3.48-1,4.14-4.28,4.12-25.49-.13-51-.07-76.47-.06-9.67,0-12,2.3-12,11.79q0,55.07,0,110.13c0,8.93,2.51,11.42,11.4,11.42H329.7c2.21,0,3.9-.3,4.89,2.87,12,38.29,41.26,59.71,81.34,59.76q53.13.06,106.27,0c9.68,0,9.46,0,9.73-9.72.13-4.33-1-5.57-5.48-5.55-38.47.17-77,.37-115.41-.08-23.33-.27-41.28-11.15-54.08-30.54a49.7,49.7,0,0,1-7.33-16.7c8.46-.12,16.61-.65,24.7-.69,55.46-.27,110.92-.14,166.39-.14,2.22,0,4.34,0,6.44-1.24q53-32,106.31-64.06C653,778.11,652.81,777.81,652.57,777.67ZM368.79,731.86c-.07-3.44.6-4.58,4.36-4.56,46.3.27,92.61.34,138.91.46,6.57,0,13.14.15,19.71,0,2.77-.07,3.52.9,3.49,3.59-.13,11.85-.19,23.71,0,35.57.06,3.4-1.24,3.83-4.15,3.82-26.44-.1-52.88-.06-79.31-.06-26.12,0-52.24-.09-78.35.1-3.9,0-4.77-1.1-4.69-4.79Q369.14,748.92,368.79,731.86ZM327.31,564.11c-3,.09-3.38-1.28-3.58-3.65-.79-9.26-1.81-18.49-2.5-27.76-.21-2.83-1.43-3.76-4-4.12a150.57,150.57,0,0,1-70.53-29.29c-2.26-1.7-3.55-1.56-5.64.24-7,6.07-14.35,11.81-21.43,17.83-1.89,1.61-3.06,2.08-5,0-5.52-5.81-11.21-11.46-17-17-1.9-1.81-1.49-2.88,0-4.6,6.11-7.22,12-14.63,18.16-21.78,1.84-2.14,1.7-3.51.09-5.64a148.56,148.56,0,0,1-29-69.16c-.61-4.23-2.32-5.31-6.33-5.53-8.63-.48-17.21-1.77-25.84-2.35-3.12-.21-3.52-1.49-3.46-4.14.15-7.53.22-15.08,0-22.6-.11-3.18,1-4.12,4-4.34,9-.66,17.87-1.59,26.81-2.35,2.62-.22,4.12-.83,4.57-4a152.13,152.13,0,0,1,29.58-71c1.43-1.89,1.36-3-.15-4.82-6.23-7.32-12.22-14.84-18.45-22.16-1.57-1.84-1.61-2.9.18-4.61,5.78-5.55,11.49-11.19,17-17,2-2.16,3.2-1.5,5,0,7.09,6,14.36,11.79,21.41,17.85,2,1.74,3.3,2,5.59.29a150.09,150.09,0,0,1,70.05-29.25c3.42-.49,4.45-1.82,4.68-5,.64-8.78,1.72-17.54,2.28-26.32.22-3.33,1.35-4.3,4.62-4.2,7.37.24,14.75.19,22.12,0,2.85-.07,4.15.43,4.37,3.72.62,9.27,1.76,18.5,2.55,27.76.18,2.17.56,3.33,3.15,3.7A153.71,153.71,0,0,1,432.68,253c2.06,1.57,3,.59,4.39-.55,8.14-6.74,16.3-13.46,24.71-20.41,6.26,6.34,12.34,12.72,18.69,18.82,2.09,2,2.23,3.19.32,5.4-6.07,7-11.81,14.35-17.86,21.4-1.79,2.08-1.89,3.37-.19,5.65A151.06,151.06,0,0,1,492,353.86c.37,2.66,1.41,3.78,4.16,4,9.11.69,18.19,1.7,27.29,2.4,2.88.22,4.17.95,4,4.25-.28,7.68-.21,15.38,0,23.07.06,2.68-.74,3.48-3.4,3.69-9.1.7-18.16,1.85-27.26,2.52-3.06.22-4.45,1-4.91,4.29a149.07,149.07,0,0,1-28.8,69.75c-2.06,2.75-1.89,4.35.27,6.84,5.89,6.76,11.41,13.84,17.23,20.66,1.75,2,2.24,3.29,0,5.42-5.73,5.36-11.28,10.94-16.66,16.65-2,2.08-3.09,1.65-5,0-7.21-6.11-14.58-12-21.81-18.12-1.67-1.4-2.82-1.89-4.86-.35a151.09,151.09,0,0,1-71.4,29.68c-2.89.4-3.48,1.83-3.69,4.45-.73,9.26-1.8,18.49-2.59,27.74-.19,2.26-.61,3.35-3.29,3.29C343.34,563.91,335.32,563.88,327.31,564.11Zm-33.23,265.6c-12.17-.19-24.34-.15-36.51,0-2.59,0-3.54-.52-3.53-3.36q.15-48.29,0-96.57c0-2.5.65-3.23,3.2-3.2,12.49.13,25,.15,37.47,0,3,0,3.32,1.13,3.3,3.63-.09,16,0,32,0,48.05,0,15.85-.09,31.71.07,47.56C298.08,828.91,297.21,829.76,294.08,829.71Zm55.43,0c-10.72-.32-21.45-.22-32.17,0-3.15.06-4.36-.48-4.35-4.05q.24-47.55,0-95.08c0-3,.56-4.12,3.86-4.05,11,.22,22.09.24,33.13,0,3.39-.08,3.82,1.15,3.8,4.06-.12,16-.06,32-.06,48,0,15.52-.09,31,.08,46.57C353.87,828.53,353.36,829.86,349.51,829.74ZM530.67,829c-26.28-.13-52.55-.07-78.83-.07-26.11,0-52.23-.07-78.34.1-3.77,0-4.8-1-4.72-4.73.26-11.53.19-23.07,0-34.61-.05-3,.59-4.11,3.89-4.1q79.31.15,158.61,0c3.2,0,4,.89,4,4-.19,11.7-.27,23.4,0,35.09C535.41,828.55,534,829,530.67,829ZM550.52,823V733.91l74.1,44.57Z"/><path class="cls-1" d="M738.84,674.08c-8.94-26.51-17.59-53.12-26.41-79.67-.88-2.65-1.21-4.21,2.39-4.85a59.24,59.24,0,0,0,10.48-3.38c7.43-2.81,7.41-2.87,3.68-9.78-3.47-6.41-3.45-6.37-10.14-3.9-2.54.94-5.25,1.47-7.73,2.54-3.41,1.46-4.85.67-6-3q-11.58-36.09-23.71-72c-1.12-3.31-.48-5,2.12-7.18,22.85-19,25.53-54,4.86-75.21-6.48-6.65-9.68-12.84-8-21.69,0-3.68.12-7.37,0-11.06a30.7,30.7,0,0,0-60.6-5.75c-1.47,6.19-1,12.47-.71,18.67.33,7.46-.61,13.43-7.21,18.69-7.42,5.91-6.8,6.68.9,11.81a15.32,15.32,0,0,1,2,1.33c2.32,2.21,3.83,1.93,6-.68,9.17-10.85,20.91-15.42,35.09-13.19,18.53,2.93,31.78,19.23,31.32,38.48-.43,17.9-15.2,34-32.89,35.74-19.27,1.95-36.52-9.9-41.15-28-.79-3.1.77-7.57-2.37-9.06-2.75-1.31-6.62-.09-10-.39s-4.09,1.05-3.77,4.11c1.56,14.49,7.37,26.82,18.71,36.13,2.88,2.37,3.12,4.36,2,7.6-7.52,22.44-14.88,44.93-22.28,67.4-2.89,8.79-2.84,8.67-11.8,5.93-3.41-1-7.14-4.74-9.88-3s-3.79,6.46-5.82,9.71c-1.33,2.13-.62,3,1.38,3.84a75.4,75.4,0,0,0,14.89,5.27c3.36.71,3.48,2,2.54,4.87-8.33,25-16.53,50.11-24.78,75.16-3.21,9.72-3.18,9.55,6.71,13,3.48,1.22,4.79.67,6-3,8.82-27.39,17.94-54.68,26.8-82,1-3,2-3.93,5.28-3.45a294.83,294.83,0,0,0,85.71,0c3.3-.48,4.36.47,5.32,3.41,8.31,25.71,16.77,51.37,25.2,77,3.09,9.42,3,9.14,12.58,6.41C740,679.71,740.16,678,738.84,674.08ZM665,402.28a56.87,56.87,0,0,0-30.81.05c0-6.44-.43-12.7.11-18.87.65-7.49,7.65-13,15.45-12.92s14.55,5.78,15.15,13.32C665.42,389.88,665,396,665,402.28ZM688.2,579.66a288.06,288.06,0,0,1-77.6,0c-2.53-.34-2.87-1.11-2.15-3.29q11.74-35.49,23.37-71c.73-2.22,1.62-2.48,3.74-1.88a49.41,49.41,0,0,0,28,0c2.57-.75,3.22,0,4,2.28q11.43,35.1,23.09,70.12C691.43,578.45,691.19,579.26,688.2,579.66Z"/><path class="cls-1" d="M339.63,283.17a92.61,92.61,0,0,0-93,92.55c-.08,51,41.45,92.82,92.33,92.86,51.35,0,93.16-41.54,93.13-92.62S390.6,283.25,339.63,283.17Zm-3.65,44c-3.74,0-4.44,1.1-4.43,4.58.13,38.62.08,77.24.08,115.85,0,5.69,0,5.69-5.74,4.76-35.77-5.85-62.7-37-64.1-74.09-1.38-36.17,23.4-69.47,58.47-77.6,29.71-6.88,55.37,1,76.51,23.1a25.88,25.88,0,0,1,1.89,2.18c.15.2.06.58.11,1.32h-4.63C374.75,327.25,355.36,327.37,336,327.15Zm16.64,125.19c-5.87,1-5.87,1-5.87-5.11V397.71c0-17,.09-34-.07-51,0-3.37.48-4.7,4.34-4.65,18.27.23,36.54.18,54.81,0,2.78,0,3.92,1,4.94,3.35C430.54,390.57,401.31,444.34,352.62,452.34Z"/></svg>